# xmcd
#
# Track frame offsets:
#	150
#	18497
#	32517
#	52030
#	57060
#	68937
#	100860
#	107432
#	118875
#	131400
#	143597
#	155742
#	170652
#	193350
#	202142
#	216955
#
# Disc length: 2984 seconds
#
# Revision: 3
# Processed by: cddbd v1.5.2PL0 Copyright (c) Steve Scherf et al.
# Submitted via: audiograbber 1.83.01
#
DISCID=f10ba610
DTITLE=Bob Wills - Encore Disc 3
DYEAR=1900
DGENRE=Country
TTITLE0=Summit Ridge Drive
TTITLE1=Beaumont Rag
TTITLE2=La Golondrina
TTITLE3=Smith's Reel
TTITLE4=Just Friends
TTITLE5=St. Louis Blues
TTITLE6=Gone Indian
TTITLE7=What Makes Bob Holler
TTITLE8=Silver Lake Blues
TTITLE9=Goin' Away Party
TTITLE10=Big Balls In Cowtown
TTITLE11=Twin Guitar Boogie
TTITLE12=Milk Cow Blues
TTITLE13=Cripplen Turkey
TTITLE14=Faded Love
TTITLE15=Playboy Theme
EXTD=
EXTT0=
EXTT1=
EXTT2=
EXTT3=
EXTT4=
EXTT5=
EXTT6=
EXTT7=
EXTT8=
EXTT9=
EXTT10=
EXTT11=
EXTT12=
EXTT13=
EXTT14=
EXTT15=
PLAYORDER=
